<?xml version="1.0" standalone="no"?>
<!DOCTYPE svg PUBLIC "-//W3C//DTD SVG 20010904//EN"
 "http://www.w3.org/TR/2001/REC-SVG-20010904/DTD/svg10.dtd">
<svg version="1.0" xmlns="http://www.w3.org/2000/svg"
 width="1112.000000pt" height="1280.000000pt" viewBox="0 0 1112.000000 1280.000000"
 preserveAspectRatio="xMidYMid meet">
<g transform="translate(0.000000,1280.000000) scale(0.100000,-0.100000)"
fill="#ffffff" stroke="none">
<path d="M2800 12796 c0 -7 227 -186 308 -243 37 -26 107 -83 156 -126 48 -44
121 -100 161 -126 40 -26 91 -68 113 -95 52 -62 131 -127 202 -165 37 -20 61
-41 74 -66 29 -53 145 -158 209 -190 45 -22 62 -37 86 -78 40 -72 123 -151
192 -184 67 -32 93 -71 67 -101 -9 -10 -15 -39 -16 -72 -1 -67 -39 -183 -84
-254 -26 -42 -241 -269 -475 -503 -31 -31 -43 -51 -43 -72 0 -17 -4 -33 -10
-36 -18 -11 -50 -136 -50 -195 0 -71 32 -179 65 -218 14 -17 46 -40 72 -52 27
-12 60 -31 76 -42 46 -33 81 -38 148 -22 35 8 69 20 76 26 9 7 13 7 13 -1 0
-6 10 -11 23 -11 33 0 82 57 97 113 11 40 19 50 49 63 88 38 218 78 376 115
94 21 193 51 222 65 36 17 65 24 93 22 l41 -3 -34 -70 c-53 -110 -127 -272
-127 -279 0 -4 -25 -59 -56 -122 -119 -243 -261 -396 -669 -716 -237 -186
-306 -265 -392 -443 -22 -48 -40 -72 -56 -77 -12 -3 -63 -6 -114 -7 l-91 -1
-64 43 c-35 24 -112 78 -172 120 l-109 77 -166 -5 c-91 -3 -182 -11 -201 -17
-26 -7 -56 -35 -115 -105 -44 -52 -87 -99 -96 -104 -11 -5 -64 2 -152 21 -222
49 -523 60 -639 23 -38 -11 -87 -14 -235 -10 -104 3 -228 9 -278 15 -49 5
-160 13 -246 17 -133 6 -165 4 -210 -11 -42 -13 -104 -18 -278 -22 -190 -3
-231 -7 -268 -23 -38 -16 -169 -45 -241 -54 -25 -2 -27 -6 -26 -45 1 -48 12
-59 103 -106 36 -19 92 -65 157 -130 55 -56 109 -104 120 -108 10 -3 56 -6
102 -8 102 -2 110 4 123 103 14 99 21 110 60 99 17 -5 65 -10 105 -11 47 -1
78 -7 85 -15 20 -25 111 -26 295 -5 161 19 202 20 409 11 239 -9 325 -23 425
-68 24 -12 48 -18 52 -16 4 3 8 0 8 -5 0 -6 -21 -22 -47 -35 -86 -44 -123
-106 -123 -210 -1 -109 -19 -203 -64 -338 l-45 -134 15 -64 c12 -50 13 -94 8
-194 l-7 -129 37 7 c99 19 259 119 359 225 78 83 91 119 83 230 -5 73 -7 77
-43 109 -20 18 -47 35 -60 38 -27 7 -29 17 -7 35 8 7 22 26 30 42 9 16 31 35
49 43 38 16 55 40 55 78 0 14 4 26 9 26 4 0 45 34 89 74 94 87 64 87 282 1
173 -68 323 -120 405 -141 33 -8 125 -36 205 -61 114 -36 152 -53 180 -79 19
-18 60 -44 90 -58 60 -26 154 -116 230 -221 24 -32 74 -93 110 -135 37 -41 82
-100 102 -130 38 -61 90 -110 116 -111 10 0 41 -37 73 -87 151 -232 641 -761
1239 -1337 234 -226 336 -316 397 -351 17 -11 132 -87 255 -170 123 -83 286
-185 363 -226 194 -105 487 -250 565 -281 42 -16 85 -44 120 -76 30 -28 63
-54 74 -57 14 -5 17 -12 12 -38 -37 -182 -45 -318 -25 -405 5 -25 36 -92 67
-150 31 -58 69 -138 84 -178 14 -39 40 -91 56 -115 17 -25 51 -95 76 -158 25
-62 63 -143 85 -179 22 -36 46 -82 54 -101 48 -114 72 -177 72 -190 0 -18 56
-118 102 -181 37 -53 45 -83 13 -54 -11 10 -42 58 -67 107 -45 85 -68 116 -78
106 -6 -6 89 -185 111 -209 10 -11 15 -21 12 -24 -7 -7 -141 152 -160 190 -22
44 -47 125 -51 167 -5 54 -17 60 -17 9 0 -51 38 -167 76 -236 16 -27 50 -72
76 -99 26 -27 46 -51 44 -54 -13 -12 -73 38 -119 101 -30 39 -66 83 -81 96
-47 44 -39 14 13 -49 70 -83 64 -90 -8 -10 -54 60 -86 77 -63 33 12 -22 127
-132 161 -154 22 -14 23 -17 10 -40 -7 -13 -12 -30 -11 -37 2 -6 -3 -12 -9
-12 -7 0 -1 -12 13 -27 23 -25 78 -122 78 -139 0 -16 -100 101 -140 164 -29
46 -52 72 -64 72 -12 0 -16 -5 -12 -16 3 -9 6 -22 6 -29 0 -7 16 -34 35 -59
32 -42 34 -64 3 -33 -16 16 -48 29 -48 19 0 -4 6 -17 14 -28 13 -18 13 -21 -2
-21 -9 0 -23 5 -31 11 -11 8 -13 8 -7 -2 6 -10 51 -38 73 -45 4 -1 9 -10 10
-19 2 -14 -7 -11 -42 14 -25 17 -47 29 -50 26 -3 -3 9 -15 28 -27 19 -12 41
-29 48 -38 8 -9 -6 -3 -31 13 -67 45 -132 81 -160 88 -14 4 -2 -6 26 -21 27
-15 70 -42 95 -59 24 -17 59 -39 77 -48 19 -10 32 -19 30 -21 -2 -2 -48 10
-103 26 -174 52 -315 74 -315 48 0 -5 33 -18 73 -29 152 -45 175 -60 89 -60
-27 0 -56 -6 -66 -13 -15 -11 -6 -13 61 -9 109 5 227 -13 265 -39 20 -15 32
-18 37 -11 4 8 21 3 50 -14 23 -14 40 -28 37 -31 -3 -3 -20 4 -39 16 -36 22
-52 27 -43 12 3 -4 34 -22 68 -39 96 -46 114 -67 23 -26 -44 20 -97 49 -118
66 -21 16 -40 28 -42 27 -11 -12 44 -53 124 -94 95 -49 114 -66 44 -41 -74 26
-128 58 -175 104 -26 25 -50 43 -53 40 -9 -9 170 -175 230 -214 76 -48 119
-65 179 -70 55 -4 176 -41 176 -53 0 -4 -25 -26 -55 -48 -30 -22 -52 -43 -48
-46 3 -3 35 16 71 44 57 43 92 60 92 44 0 -3 -25 -31 -57 -62 l-56 -57 -62 11
c-87 15 -166 56 -248 129 -40 35 -76 64 -82 64 -5 0 10 -19 35 -42 l45 -41
-45 35 c-25 20 -45 41 -45 48 0 7 -34 35 -75 64 -62 42 -80 61 -102 106 -29
59 -38 54 -13 -8 l15 -37 -30 35 c-20 24 -30 30 -30 18 0 -16 94 -108 111
-108 5 0 54 -40 110 -90 55 -49 104 -90 109 -90 6 0 10 -5 10 -10 0 -18 -53
17 -119 79 -36 34 -66 59 -68 57 -2 -2 20 -30 50 -63 55 -59 126 -103 165
-103 12 0 39 -9 60 -20 45 -24 159 -50 219 -50 70 0 76 -6 48 -48 -36 -53 -30
-61 8 -10 18 24 43 44 55 46 12 2 22 1 22 -2 0 -15 -66 -168 -132 -306 -94
-197 -227 -443 -290 -539 -61 -93 -84 -169 -93 -301 -4 -58 -19 -157 -35 -220
-60 -244 -63 -270 -51 -360 6 -46 11 -109 11 -142 0 -33 4 -58 10 -58 6 0 36
13 68 29 31 15 68 32 82 36 14 4 40 19 59 33 l34 25 19 -25 c14 -21 30 -27 76
-33 33 -4 69 -2 84 4 15 6 58 14 95 17 54 6 71 12 90 33 18 21 22 33 17 61 -3
19 -12 42 -20 51 -19 21 -18 36 7 76 20 31 82 73 111 73 6 0 24 11 38 25 16
15 46 29 80 35 65 12 80 29 80 87 0 39 12 91 71 313 34 127 153 505 174 555 7
17 43 127 79 245 48 154 85 252 131 345 72 146 82 180 89 280 4 77 12 105 29
105 18 0 149 80 200 122 27 22 50 38 53 36 2 -3 -11 -27 -29 -54 -77 -113
-213 -353 -248 -438 -68 -166 -85 -304 -49 -417 18 -58 75 -147 87 -135 3 3
-11 31 -30 63 -48 77 -61 136 -54 236 6 79 46 234 54 210 2 -6 -3 -34 -11 -62
-8 -28 -12 -51 -8 -51 7 0 55 133 67 185 3 17 32 75 64 130 32 55 69 119 82
142 64 114 202 304 246 339 27 21 58 48 71 61 13 13 27 23 32 23 22 0 6 -28
-48 -86 -31 -34 -65 -77 -75 -95 l-19 -34 33 35 c104 113 132 141 136 136 3
-2 -1 -14 -7 -26 -8 -15 -8 -20 -1 -16 6 4 11 5 11 2 0 -12 -206 -345 -245
-396 -85 -110 -125 -200 -145 -325 -6 -36 -20 -68 -44 -100 -37 -48 -41 -65
-26 -100 7 -16 9 -12 10 20 0 27 9 50 25 70 l25 30 0 -65 c1 -67 15 -121 45
-166 28 -43 27 -21 -1 30 -34 61 -42 149 -21 229 9 33 13 65 10 73 -9 23 51
184 64 171 3 -3 -7 -36 -22 -72 -37 -94 -26 -91 15 3 57 134 61 140 88 158 15
10 33 26 40 36 14 19 42 25 42 8 0 -12 -62 -100 -70 -100 -13 0 -99 -127 -105
-155 -5 -25 -2 -23 16 13 12 23 24 42 28 42 10 0 83 68 104 97 12 18 16 21 12
8 -4 -11 -16 -45 -25 -75 -10 -30 -27 -75 -38 -100 -29 -65 -35 -90 -23 -90 6
0 11 10 11 23 0 12 10 42 22 67 19 39 22 42 26 22 2 -13 -1 -37 -7 -54 -6 -17
-11 -40 -10 -52 0 -19 1 -19 11 4 5 14 16 52 23 85 9 42 14 51 15 30 1 -33 25
-72 34 -56 3 5 1 22 -4 37 -6 15 -8 41 -5 58 8 40 46 126 56 126 4 0 -3 -19
-16 -42 -24 -42 -34 -108 -16 -108 5 0 12 15 15 33 3 19 13 42 21 53 9 13 7
-3 -7 -46 -17 -53 -22 -91 -22 -200 -1 -130 -2 -137 -29 -183 -16 -27 -26 -51
-24 -54 3 -3 15 13 26 35 22 43 50 71 37 36 -15 -38 -28 -129 -23 -163 5 -40
38 -135 50 -147 7 -8 -2 27 -29 102 -13 35 -12 50 2 125 9 46 17 100 18 119 1
19 10 53 20 75 10 22 35 74 54 115 20 42 56 96 84 126 43 46 248 371 248 394
0 5 4 11 8 14 9 5 -2 -114 -17 -185 -6 -26 -11 -105 -12 -175 -1 -114 1 -135
21 -182 42 -97 117 -137 210 -113 25 6 97 38 160 70 63 32 127 61 141 64 15 4
49 27 76 51 45 41 148 123 267 213 64 48 199 187 187 191 -12 4 -76 -29 -120
-62 -38 -28 -51 -32 -51 -15 0 18 36 58 94 103 31 24 70 62 86 84 16 22 33 43
39 47 6 3 11 17 11 30 0 13 4 27 10 30 5 3 15 16 20 28 10 20 10 20 -3 5 -15
-19 -32 -25 -22 -8 3 5 1 10 -5 10 -6 0 -16 -12 -22 -28 -9 -22 -12 -24 -15
-9 -4 15 -13 10 -56 -30 -29 -27 -77 -66 -107 -86 -78 -52 -114 -86 -228 -218
l-101 -116 -70 -11 c-86 -15 -128 -15 -136 -2 -3 6 1 10 10 10 10 0 31 12 48
26 16 14 55 38 86 54 53 27 126 90 105 90 -6 0 -21 -12 -35 -26 -13 -14 -49
-37 -78 -50 -30 -14 -70 -36 -87 -49 -24 -19 -45 -25 -80 -25 -52 0 -55 8 -4
15 18 2 40 11 49 19 10 9 33 21 52 28 51 17 107 55 120 80 9 19 5 17 -22 -8
-19 -18 -52 -37 -74 -44 -22 -7 -61 -24 -86 -38 l-45 -25 -53 37 c-29 20 -57
37 -62 37 -5 1 -15 2 -21 3 -13 1 -26 85 -46 317 -11 119 -8 164 11 152 7 -4
8 0 2 13 -11 26 -19 84 -11 84 4 0 20 -7 36 -15 39 -20 38 -6 0 28 -46 42 -40
73 11 55 17 -6 33 -7 37 -4 3 4 -4 9 -16 13 -12 3 -22 9 -22 14 0 5 8 6 18 2
11 -4 7 5 -13 26 l-30 33 25 18 c14 11 38 29 54 41 26 21 32 21 72 11 55 -15
89 -15 115 -1 16 8 18 13 8 25 -14 17 2 19 19 2 9 -9 13 -7 18 5 4 12 13 15
30 11 14 -4 24 -2 24 4 0 6 -8 12 -17 14 -14 2 -12 6 9 20 25 17 28 16 107
-17 45 -19 81 -31 81 -26 0 5 -34 26 -76 47 -69 35 -144 101 -144 127 0 4 11
-5 25 -22 14 -16 52 -42 83 -57 31 -16 74 -38 94 -51 45 -28 57 -29 35 -5 -10
10 -45 33 -80 50 -35 18 -78 48 -97 68 l-35 37 35 -6 c19 -3 43 -8 53 -12 11
-5 17 -2 17 7 0 8 -18 23 -40 33 -46 21 -65 40 -25 25 31 -12 45 -6 45 20 0
10 4 21 10 25 5 3 7 12 3 20 -7 20 11 19 27 0 7 -9 15 -13 18 -10 3 3 -5 16
-18 30 -26 28 -32 88 -10 109 10 8 11 6 5 -13 -5 -16 -4 -21 4 -17 8 5 9 48 5
139 -4 100 -3 128 6 114 10 -15 13 -16 26 -2 10 9 13 23 9 37 -5 18 1 15 33
-17 21 -22 44 -50 51 -63 13 -24 41 -30 41 -8 0 7 -9 25 -21 40 -27 34 -17 33
18 -1 24 -25 28 -26 31 -10 2 10 -4 30 -14 45 l-17 27 25 -22 c13 -13 27 -23
31 -23 11 0 -26 73 -51 102 -15 16 -22 33 -18 43 3 9 -3 33 -13 53 -10 20 -21
57 -25 80 -4 24 -16 63 -28 85 -12 23 -22 49 -23 57 -3 28 -18 65 -36 92 -11
14 -19 39 -19 56 0 16 -7 35 -16 43 -8 7 -13 21 -10 32 2 10 -4 34 -14 53 -11
18 -15 36 -10 39 5 3 -2 17 -16 31 -16 18 -22 34 -18 49 4 16 -8 35 -53 82
-32 33 -65 73 -73 88 -8 15 -34 43 -57 62 -24 20 -43 44 -43 55 0 19 -35 57
-53 58 -10 0 -164 116 -172 130 -18 29 -309 141 -405 156 -53 8 -83 22 -165
77 -127 85 -187 141 -258 242 -187 265 -462 612 -539 680 -78 70 -292 245
-331 271 -63 43 -199 147 -318 243 -59 47 -174 137 -257 199 -285 217 -458
390 -703 706 -113 145 -142 203 -188 362 -23 78 -27 109 -11 84 15 -24 18 -8
11 67 -9 100 0 118 24 46 19 -57 20 -57 23 -23 1 19 -4 59 -11 88 -8 28 -11
52 -8 52 17 -1 33 -20 28 -33 -9 -23 4 -29 19 -9 11 15 14 14 25 -13 9 -22 13
-26 16 -13 2 9 -2 27 -9 40 -20 36 -35 106 -27 120 5 7 6 21 3 31 -7 22 12 23
20 1 4 -9 9 -14 12 -11 3 3 1 14 -5 25 -14 26 -3 59 21 65 11 3 22 15 25 26 5
20 6 20 19 4 8 -11 13 -13 14 -5 0 7 -9 20 -20 29 -11 10 -20 21 -20 26 0 5 6
4 14 -2 10 -8 16 -9 21 -1 3 5 1 10 -5 10 -11 0 -25 30 -36 78 -5 22 -4 25 7
15 7 -7 16 -13 20 -13 7 0 3 14 -27 95 -9 26 -9 43 0 82 9 37 37 66 44 45 2
-8 18 2 43 29 21 23 39 37 39 30 0 -7 4 -10 9 -6 6 3 6 17 1 35 -5 17 -5 30
-1 30 4 0 12 -19 19 -42 17 -61 27 -75 45 -60 12 10 16 9 21 -3 10 -26 27 -17
20 11 -5 19 -4 25 5 20 19 -12 12 10 -10 30 -19 17 -49 65 -49 79 0 3 11 5 25
5 17 0 29 -9 40 -30 8 -16 24 -34 35 -40 11 -6 19 -16 17 -22 -1 -6 4 -13 11
-15 6 -3 12 2 12 11 0 20 29 21 58 0 27 -19 49 -9 30 13 -7 8 -18 29 -24 47
-7 17 -20 51 -29 76 -10 25 -17 63 -17 85 0 22 -7 47 -15 57 -12 13 -12 20 -1
37 11 18 10 26 -4 52 -31 53 -21 68 16 24 19 -22 36 -38 39 -35 11 11 -68 131
-90 136 -13 4 -23 11 -23 18 0 6 -13 27 -28 46 -23 28 -29 46 -31 93 -1 33 -9
80 -17 105 -7 26 -14 62 -14 79 0 18 -16 64 -35 102 -19 37 -35 75 -35 84 0 8
-7 27 -15 43 -16 32 -12 43 9 25 9 -8 15 -8 18 -1 3 10 94 -17 180 -54 21 -9
45 -16 54 -16 32 0 -31 39 -115 71 -44 17 -83 34 -86 38 -4 8 182 -59 204 -73
6 -4 11 -3 11 1 0 12 -29 28 -126 68 -111 45 -152 64 -138 65 6 0 28 -7 47
-15 48 -20 93 -2 80 31 -4 10 -10 11 -24 4 -16 -9 -21 -5 -33 25 -16 37 -47
55 -96 55 -21 0 -29 5 -28 18 0 9 -3 25 -7 35 -5 13 -2 17 11 17 15 0 12 6
-14 33 -31 30 -34 31 -47 14 -13 -18 -14 -18 -23 0 -5 10 -17 45 -27 78 -10
33 -25 66 -33 72 -9 7 -12 16 -9 20 4 4 13 1 19 -5 21 -21 31 -13 14 13 -9 13
-16 27 -16 31 0 13 39 -28 45 -47 4 -11 10 -19 15 -19 12 0 -16 53 -40 75 -20
18 -27 45 -11 45 5 0 14 -7 21 -15 7 -9 15 -13 17 -11 3 3 -4 15 -16 27 -12
13 -21 26 -21 31 0 7 45 2 79 -8 11 -4 11 -2 2 10 -7 8 -37 20 -67 27 l-54 12
0 46 c0 25 -5 75 -10 110 -8 56 -14 69 -52 108 -44 45 -178 116 -241 128 -24
5 -62 32 -131 96 -70 64 -103 89 -122 89 -19 0 -25 4 -20 15 3 9 0 15 -9 15
-8 0 -15 4 -15 10 0 5 -6 7 -13 4 -8 -3 -20 2 -27 11 -16 20 -39 19 -62 -2
-25 -22 -33 -11 -15 24 8 15 18 43 22 62 7 31 5 33 -14 28 -24 -6 -27 4 -9 33
10 16 9 23 -11 44 -12 13 -38 27 -57 30 -19 4 -34 11 -34 16 0 6 -9 10 -20 10
-11 0 -20 -6 -20 -12 0 -9 -4 -8 -10 2 -9 13 -11 13 -20 0 -6 -10 -10 -11 -10
-2 0 6 -9 12 -19 12 -11 0 -26 7 -35 15 -8 8 -25 15 -37 15 -12 0 -42 19 -68
43 -25 23 -56 50 -68 58 -12 8 -27 27 -32 42 -8 21 -17 27 -40 27 l-30 0 59
113 c91 172 127 297 83 280 -10 -4 -61 -41 -113 -84 -62 -50 -121 -88 -170
-109 -41 -17 -103 -46 -138 -63 l-63 -32 -17 23 c-17 22 -60 50 -120 77 -40
19 -135 32 -112 16 8 -6 24 -11 34 -11 11 0 17 -3 13 -6 -3 -3 -44 -7 -92 -9
l-86 -2 -43 51 c-73 87 -159 208 -184 260 -25 54 -49 86 -64 86 -12 0 -10 -68
3 -92 11 -21 13 -30 29 -173 5 -44 14 -98 19 -120 16 -60 15 -62 -34 -81 -25
-9 -48 -21 -52 -27 -4 -6 -1 -7 7 -2 9 6 10 2 5 -16 -10 -33 -8 -32 -46 -10
-44 26 -159 53 -195 45 -25 -5 -37 2 -84 48 -63 61 -160 106 -247 115 -44 5
-60 13 -95 45 -48 44 -177 110 -252 127 -27 7 -66 25 -85 40 -56 45 -150 97
-234 130 -42 17 -98 46 -124 65 -26 19 -97 60 -158 92 -60 31 -159 87 -220
124 -126 77 -155 93 -155 86z m3037 -1073 c23 -15 59 -63 46 -63 -5 1 -30 21
-58 46 -46 41 -40 50 12 17z m649 -518 c-19 -14 -36 -12 -36 6 0 5 12 9 28 9
26 -1 26 -1 8 -15z m84 -65 c24 -15 7 -19 -20 -5 -15 8 -19 14 -10 14 8 1 22
-3 30 -9z m135 -50 c3 -5 -3 -10 -14 -10 -12 0 -21 5 -21 10 0 6 6 10 14 10 8
0 18 -4 21 -10z m30 -60 c3 -5 2 -10 -4 -10 -5 0 -13 5 -16 10 -3 6 -2 10 4
10 5 0 13 -4 16 -10z m-5 -100 c13 -9 13 -10 0 -10 -8 0 -22 5 -30 10 -13 9
-13 10 0 10 8 0 22 -5 30 -10z m77 -22 c42 -10 44 -12 23 -20 -16 -6 -31 -3
-54 12 -36 23 -32 24 31 8z m93 -74 c20 -51 -26 -62 -59 -15 -28 39 -27 41 14
41 29 0 37 -5 45 -26z m10 -58 c0 -2 -9 -6 -20 -9 -11 -3 -20 -1 -20 4 0 5 9
9 20 9 11 0 20 -2 20 -4z m304 -532 c9 -8 16 -20 16 -25 0 -5 9 -18 20 -29 11
-11 15 -20 10 -20 -17 0 -113 51 -107 56 3 3 15 1 26 -6 14 -7 21 -7 21 0 0 6
-11 15 -25 20 -14 5 -25 12 -25 15 0 12 50 4 64 -11z m12 -593 c4 -39 3 -61
-4 -61 -16 0 -22 27 -21 98 0 79 14 59 25 -37z m-51 -351 c3 -5 1 -10 -4 -10
-6 0 -11 5 -11 10 0 6 2 10 4 10 3 0 8 -4 11 -10z m-5 -64 c0 -16 -3 -15 -20
7 -11 14 -20 28 -20 31 0 3 9 1 20 -6 11 -7 20 -21 20 -32z m40 8 c0 -8 -4
-12 -10 -9 -5 3 -10 13 -10 21 0 8 5 12 10 9 6 -3 10 -13 10 -21z m188 -15
c-3 -8 -7 -3 -11 10 -4 17 -3 21 5 13 5 -5 8 -16 6 -23z m-110 -41 c14 -16 22
-28 17 -28 -15 0 -55 52 -54 69 0 14 1 14 6 1 3 -8 17 -27 31 -42z m62 -59
c11 -39 19 -76 17 -82 -5 -14 -7 -9 -35 90 -25 93 -11 86 18 -8z m89 -78 c-13
-4 -38 28 -38 49 0 9 9 4 24 -15 14 -16 20 -32 14 -34z m-292 -34 c-6 -15 -15
-27 -20 -27 -4 0 0 14 8 31 20 37 30 34 12 -4z m-152 -665 c-8 -9 -35 26 -35
46 0 9 8 4 21 -12 12 -15 18 -30 14 -34z m-71 13 c3 -8 1 -15 -4 -15 -6 0 -10
7 -10 15 0 8 2 15 4 15 2 0 6 -7 10 -15z m2608 -3266 c74 -107 78 -114 113
-199 36 -86 43 -193 21 -315 -31 -170 -55 -538 -36 -550 6 -4 10 9 10 29 0 19
4 37 9 41 6 3 7 -16 4 -47 -9 -91 39 -350 78 -416 37 -64 16 -157 -42 -188
-38 -19 -120 -14 -172 12 l-32 15 23 -20 c13 -12 43 -26 65 -33 l42 -13 -45
-6 c-24 -3 -61 -2 -81 2 -27 6 -45 5 -66 -6 -20 -11 -44 -13 -85 -9 -31 4 -92
3 -135 -1 -65 -6 -75 -9 -60 -20 9 -7 17 -17 17 -24 0 -6 18 -11 43 -12 23 0
51 -4 62 -9 11 -4 -15 -6 -61 -3 -96 7 -122 1 -161 -31 -24 -20 -39 -24 -81
-22 -38 2 -56 8 -67 22 -14 18 -14 17 -16 -11 -1 -16 -2 -36 -2 -42 1 -17 -16
-16 -51 2 -25 13 -27 13 -22 0 3 -9 0 -15 -9 -15 -8 0 -15 -4 -15 -10 0 -5 11
-10 24 -10 38 0 56 -10 56 -31 0 -15 5 -18 23 -14 29 7 132 -28 132 -45 0 -7
9 -16 20 -20 16 -5 13 -8 -14 -13 -65 -13 -81 -9 -103 29 -13 22 -26 33 -35
30 -8 -3 -19 -6 -24 -6 -5 0 -9 -4 -9 -10 0 -5 8 -10 17 -10 18 0 53 -28 53
-43 0 -6 -26 -7 -72 -2 -40 4 -84 8 -98 10 -53 5 -111 18 -116 26 -3 5 -13 9
-24 9 -41 0 -52 197 -16 285 8 19 37 59 64 88 28 28 84 99 127 156 42 57 97
122 123 145 127 114 170 164 236 277 68 114 106 197 166 361 56 154 66 194 75
288 3 36 19 124 35 195 16 72 30 153 31 180 2 52 8 95 15 95 2 0 32 -41 66
-91z m184 -960 c-6 -46 -5 -51 14 -56 20 -5 20 -6 4 -32 -16 -24 -16 -25 -1
-12 16 12 17 6 18 -75 2 -121 16 -177 19 -74 1 60 3 69 10 46 14 -46 -13 -302
-30 -291 -15 9 -58 158 -64 220 -6 56 6 235 20 298 10 46 17 30 10 -24z m984
-274 c20 -24 6 -28 -15 -5 -10 11 -13 20 -8 20 6 0 16 -7 23 -15z m-155 -435
c10 -11 14 -20 8 -20 -5 0 -18 9 -28 20 -10 11 -14 20 -8 20 5 0 18 -9 28 -20z
m-1060 -40 c3 -5 2 -10 -4 -10 -5 0 -13 5 -16 10 -3 6 -2 10 4 10 5 0 13 -4
16 -10z m-155 -19 c0 -16 -33 -22 -88 -15 -36 4 -49 9 -41 15 18 12 129 11
129 0z m93 2 c-7 -2 -19 -2 -25 0 -7 3 -2 5 12 5 14 0 19 -2 13 -5z m-73 -43
c-14 -11 -34 -19 -45 -19 -14 0 -7 7 20 20 51 24 56 23 25 -1z m-108 -32 c32
-7 58 -16 58 -20 0 -10 -79 -68 -92 -68 -5 0 -8 8 -6 18 2 9 10 17 18 17 8 0
25 8 38 16 22 16 22 17 2 22 -11 3 -23 0 -28 -6 -4 -7 -21 -19 -37 -29 -27
-15 -33 -15 -59 -1 -15 8 -39 13 -52 10 -18 -3 -24 0 -24 14 0 39 72 50 182
27z m-235 -54 c-3 -3 -12 -4 -19 -1 -8 3 -5 6 6 6 11 1 17 -2 13 -5z m-31 -14
c15 -6 24 -13 22 -16 -8 -8 -58 7 -58 17 0 11 3 11 36 -1z m140 0 c8 0 14 -5
14 -11 0 -7 -10 -9 -27 -5 -16 4 -36 7 -45 7 -10 0 -18 5 -18 11 0 6 12 8 31
4 17 -3 38 -6 45 -6z m51 -36 c-3 -3 -12 -4 -19 -1 -8 3 -5 6 6 6 11 1 17 -2
13 -5z m-139 -29 c48 -14 71 -35 39 -35 -15 0 -97 38 -97 45 0 7 0 7 58 -10z
m1352 -35 c8 -5 11 -10 5 -10 -5 0 -17 5 -25 10 -8 5 -10 10 -5 10 6 0 17 -5
25 -10z m-1682 -101 l37 -1 -32 -9 c-35 -10 -42 -23 -18 -33 8 -3 15 -10 15
-15 0 -12 -50 13 -61 31 -14 22 -10 41 7 34 9 -3 32 -6 52 -7z m1185 -134 c-3
-9 -8 -14 -10 -11 -3 3 -2 9 2 15 9 16 15 13 8 -4z m21 -154 c-14 -54 -43
-116 -51 -108 -2 3 0 14 6 25 16 29 14 37 -6 21 -15 -13 -15 -12 -5 7 6 11 18
26 26 33 8 7 18 26 21 42 4 16 10 29 14 29 5 0 2 -22 -5 -49z m-82 -3 c-7 -7
-12 -8 -12 -2 0 14 12 26 19 19 2 -3 -1 -11 -7 -17z m-2055 -9 c15 -6 76 -60
134 -120 l106 -110 -41 7 c-63 10 -39 -3 28 -15 65 -12 106 -34 106 -56 0 -26
-34 -35 -96 -25 -44 7 -65 17 -89 40 -30 31 -30 31 -10 47 19 14 18 15 -11 8
-28 -5 -36 -1 -71 39 -43 49 -103 154 -103 180 0 19 9 20 47 5z m1943 -181
c-12 -43 -82 -110 -158 -151 -49 -27 -52 -27 -52 -8 0 11 27 60 61 108 33 48
81 119 107 157 l47 69 3 -69 c2 -38 -2 -86 -8 -106z m234 100 c-5 -47 -12 -68
-29 -83 -18 -17 -23 -36 -28 -101 -3 -43 -11 -92 -17 -109 l-13 -30 -8 30 c-5
17 -12 68 -15 115 l-7 86 50 44 c27 25 53 52 58 60 6 11 3 10 -12 -2 -32 -29
-36 -20 -6 17 15 19 29 35 30 35 2 0 0 -28 -3 -62z m-2376 27 c-3 -3 -9 2 -12
12 -6 14 -5 15 5 6 7 -7 10 -15 7 -18z m2515 -32 c3 -10 6 -44 6 -75 1 -32 6
-90 11 -130 12 -90 12 -88 3 -88 -5 0 -14 12 -22 28 -18 33 -29 282 -13 282 6
0 13 -8 15 -17z m-2321 -68 c11 -19 10 -20 -10 -2 -11 10 -22 28 -26 40 -5 22
-5 22 10 2 9 -11 20 -29 26 -40z m-109 -34 c26 -25 47 -49 47 -54 0 -5 -16 9
-37 32 -20 23 -42 40 -49 37 -13 -5 -44 29 -44 47 0 12 23 -5 83 -62z m392
-19 c-3 -4 -25 14 -48 38 l-42 43 48 -38 c26 -21 45 -40 42 -43z m5 36 c0 -5
-7 -3 -15 6 -8 8 -15 18 -15 22 0 3 7 1 15 -6 8 -7 15 -17 15 -22z m1290 9 c0
-2 -10 -12 -21 -23 -22 -19 -22 -19 -10 4 10 18 31 31 31 19z m-1952 -54 c61
-19 112 -40 112 -45 0 -6 -6 -8 -12 -6 -7 3 -70 24 -140 47 -71 24 -128 45
-128 47 0 7 48 -5 168 -43z m211 13 c-3 -3 -11 5 -18 17 -13 21 -12 21 5 5 10
-10 16 -20 13 -22z m3375 -1 c-15 -20 -37 -41 -48 -47 -12 -6 -1 10 24 36 53
55 61 58 24 11z m-3338 4 c19 -22 19 -22 -3 -8 -13 8 -23 17 -23 21 0 12 6 9
26 -13z m149 -10 c19 -17 33 -35 30 -39 -3 -5 15 -19 40 -31 25 -12 45 -26 45
-31 0 -12 -4 -11 -75 28 -45 25 -64 41 -61 51 3 7 -1 16 -9 19 -13 6 -22 34
-10 34 2 0 20 -14 40 -31z m3099 -51 c-38 -40 -80 -80 -94 -89 -14 -9 -50 -39
-81 -67 -31 -29 -60 -52 -64 -52 -9 0 69 94 130 155 49 49 151 124 169 125 5
0 -22 -33 -60 -72z m-924 40 c0 -13 -12 -36 -25 -53 l-26 -30 6 35 c11 58 16
70 31 70 8 0 14 -10 14 -22z m-137 -93 l18 -106 -25 -30 c-14 -17 -26 -34 -26
-38 0 -23 -112 -43 -125 -22 -3 5 6 45 20 88 13 43 25 93 25 112 0 26 9 42 36
67 19 19 41 34 48 34 7 0 18 -39 29 -105z m-2138 47 c20 -11 20 -11 -1 -12
-20 0 -42 18 -59 50 -5 8 2 6 16 -6 13 -12 33 -26 44 -32z m1465 33 c0 -2 -10
-9 -22 -15 -22 -11 -22 -10 -4 4 21 17 26 19 26 11z m-1545 -46 c14 -14 -26
-10 -60 6 l-30 15 40 -6 c22 -3 44 -10 50 -15z m1525 -3 c0 -2 -7 -7 -16 -10
-8 -3 -12 -2 -9 4 6 10 25 14 25 6z m-1320 -78 c0 -6 -8 -7 -17 -3 -10 4 -30
12 -45 17 -47 17 -31 28 17 11 25 -8 45 -19 45 -25z m1823 -3 c-9 -19 -18 -33
-21 -31 -4 5 26 66 33 66 3 0 -3 -16 -12 -35z m-1688 -5 c18 -8 17 -9 -7 -9
-15 -1 -30 4 -33 9 -7 12 12 12 40 0z m2179 -148 c29 -118 44 -149 98 -215 50
-59 43 -70 -45 -71 -71 -1 -95 12 -124 69 -17 32 -20 164 -7 302 l6 72 24 -28
c14 -17 32 -66 48 -129z m-478 57 c-13 -35 -25 -57 -25 -49 -1 23 44 143 47
127 2 -8 -8 -43 -22 -78z m1135 47 c-40 -58 -99 -106 -130 -106 -25 0 -25 0
10 36 42 45 128 114 140 114 6 0 -4 -20 -20 -44z m134 20 c-9 -13 -33 -32 -53
-41 -20 -10 -47 -27 -59 -38 -30 -27 -38 -17 -18 22 11 22 23 31 41 31 14 0
42 11 62 25 45 31 46 31 27 1z m-2785 4 c0 -5 -11 -10 -25 -10 -14 0 -25 5
-25 10 0 6 11 10 25 10 14 0 25 -4 25 -10z m1360 -20 c-19 -16 -39 -29 -45
-30 -5 0 6 13 25 30 19 16 39 29 45 30 5 0 -6 -13 -25 -30z m106 -37 c-8 -15
-15 -25 -16 -21 0 12 23 58 27 54 3 -2 -2 -17 -11 -33z m-45 4 c-10 -9 -11 -8
-5 6 3 10 9 15 12 12 3 -3 0 -11 -7 -18z m-1666 -7 c3 -5 2 -10 -4 -10 -5 0
-13 5 -16 10 -3 6 -2 10 4 10 5 0 13 -4 16 -10z m99 -2 c-7 -11 -46 -10 -64 2
-11 8 -4 10 27 8 23 -1 40 -5 37 -10z m2246 -8 c0 -5 -9 -6 -20 -3 -11 3 -17
9 -15 14 7 10 35 1 35 -11z m-2156 -6 c8 -20 -10 -44 -33 -44 -9 1 -27 7 -41
15 -19 11 -21 14 -7 15 9 0 16 3 16 8 -3 18 3 22 30 22 17 0 31 -6 35 -16z
m1961 -294 c13 -22 39 -44 72 -61 45 -23 58 -26 90 -18 21 5 52 12 68 14 23 4
26 4 10 -3 -48 -22 -95 -32 -149 -32 -48 0 -61 4 -80 25 -13 14 -29 46 -36 72
-15 62 -22 206 -13 268 7 41 9 24 13 -90 4 -116 8 -146 25 -175z m-2254 259
c31 -11 72 -33 90 -49 l34 -29 -40 6 c-47 7 -117 42 -160 79 -29 25 -29 25 -5
19 14 -3 50 -15 81 -26z m359 21 c0 -5 -6 -10 -12 -10 -9 0 -8 -4 2 -10 12 -7
8 -10 -15 -10 -21 0 -26 3 -16 9 7 5 10 14 7 20 -5 7 1 11 13 11 12 0 21 -4
21 -10z m2110 -16 c0 -2 -9 -4 -20 -4 -11 0 -20 4 -20 9 0 5 9 7 20 4 11 -3
20 -7 20 -9z m-724 -31 c-18 -33 -21 -26 -6 13 6 15 13 24 16 21 3 -3 -1 -18
-10 -34z m659 3 c35 -24 174 -57 233 -56 121 3 124 3 111 -22 -20 -37 -102
-129 -136 -152 -44 -31 -82 -23 -138 26 -50 44 -69 75 -91 147 -22 73 -18 85
21 57z m-2265 -26 c8 -5 10 -10 4 -10 -7 0 -22 9 -35 21 -19 16 -20 18 -4 10
11 -6 27 -15 35 -21z m37 14 c-3 -3 -12 -4 -19 -1 -8 3 -5 6 6 6 11 1 17 -2
13 -5z m73 -13 c0 -13 -37 -24 -51 -15 -8 4 -7 9 2 15 19 12 49 11 49 0z
m1726 -3 c3 -4 -16 -35 -41 -68 -25 -33 -53 -77 -61 -97 -29 -68 -86 -184 -90
-181 -3 4 9 98 27 198 5 30 21 79 35 108 l26 53 49 -2 c28 -2 52 -6 55 -11z
m934 3 c0 -12 -83 -81 -97 -81 -6 0 -31 -18 -56 -40 -49 -43 -73 -54 -40 -17
11 12 32 40 46 62 20 29 41 46 79 62 62 25 68 26 68 14z m-2627 -8 c8 -8 -25
-33 -35 -27 -4 3 -2 11 5 19 14 16 21 18 30 8z m53 -18 c-3 -8 -1 -15 3 -15 5
0 11 5 13 12 3 8 9 8 22 1 15 -8 15 -11 2 -22 -10 -8 -30 -10 -62 -5 l-47 7
24 18 c29 23 53 25 45 4z m74 -114 c0 -17 -11 -42 -26 -60 -21 -25 -33 -31
-65 -31 -54 0 -51 18 13 74 62 54 78 57 78 17z m1371 -96 c-8 -36 -9 -37 -10
-10 -1 36 12 87 16 65 2 -9 -1 -33 -6 -55z m-1391 15 c0 -5 -5 -10 -11 -10 -5
0 -7 5 -4 10 3 6 8 10 11 10 2 0 4 -4 4 -10z m270 -425 c-34 -121 -223 -660
-281 -804 -42 -102 -66 -141 -128 -209 -37 -40 -43 -43 -73 -37 -46 10 -48 14
-37 65 15 69 53 125 101 152 53 29 71 62 58 108 -12 42 0 97 45 207 77 185
326 646 341 631 2 -3 -10 -53 -26 -113z"/>
<path d="M8028 2243 c6 -2 18 -2 25 0 6 3 1 5 -13 5 -14 0 -19 -2 -12 -5z"/>
<path d="M7469 2656 c14 -14 27 -26 29 -26 10 0 -26 44 -39 48 -8 3 -3 -7 10
-22z"/>
<path d="M7280 2656 c0 -2 9 -6 20 -9 11 -3 20 -1 20 4 0 5 -9 9 -20 9 -11 0
-20 -2 -20 -4z"/>
<path d="M9036 1844 c-14 -37 -1 -204 16 -204 5 0 7 4 4 8 -3 5 -6 54 -8 110
-1 56 -3 102 -4 102 -1 0 -5 -7 -8 -16z"/>
</g>
</svg>
