<?xml version="1.0" standalone="no"?>
<!DOCTYPE svg PUBLIC "-//W3C//DTD SVG 20010904//EN"
 "http://www.w3.org/TR/2001/REC-SVG-20010904/DTD/svg10.dtd">
<svg version="1.0" xmlns="http://www.w3.org/2000/svg"
 width="1280.000000pt" height="914.000000pt" viewBox="0 0 1280.000000 914.000000"
 preserveAspectRatio="xMidYMid meet">
<g transform="translate(0.000000,914.000000) scale(0.100000,-0.100000)"
fill="#ffffff" stroke="none">
<path d="M10832 9109 c-65 -32 -102 -69 -102 -101 0 -31 57 -168 106 -253 25
-44 48 -93 51 -110 3 -16 26 -74 50 -129 116 -259 152 -486 133 -838 -16 -293
-49 -457 -136 -683 -107 -276 -231 -492 -496 -857 -85 -117 -175 -242 -200
-278 -71 -101 -164 -196 -413 -423 -319 -291 -411 -359 -785 -582 -251 -150
-324 -197 -480 -315 -63 -47 -144 -106 -180 -130 -36 -23 -90 -64 -120 -90
-30 -25 -80 -63 -112 -83 -31 -19 -89 -66 -129 -104 -94 -89 -251 -272 -279
-326 -11 -23 -36 -66 -54 -95 -70 -110 -106 -372 -72 -531 32 -150 91 -231
225 -311 112 -66 147 -103 157 -165 8 -55 -2 -138 -21 -174 -16 -31 -102 -115
-168 -165 -27 -20 -107 -66 -178 -102 -152 -77 -213 -123 -258 -193 -47 -73
-61 -127 -72 -291 l-10 -145 -88 -90 c-115 -118 -135 -151 -166 -270 -28 -111
-35 -120 -154 -204 -78 -56 -240 -217 -247 -247 -7 -29 8 -57 50 -89 52 -40
167 -51 358 -37 84 6 195 21 246 32 255 56 408 25 473 -94 28 -52 73 -223 88
-339 18 -127 96 -250 180 -279 20 -7 74 -13 121 -13 72 0 90 3 117 23 30 21
39 22 211 21 l180 -1 70 32 c38 18 87 50 108 71 33 33 44 39 81 39 27 0 63
-10 93 -25 67 -34 113 -39 199 -20 102 21 149 45 195 95 59 65 88 140 94 238
6 110 10 113 185 123 143 7 209 25 272 74 37 28 80 94 96 147 16 55 12 164
-11 264 -12 53 -19 106 -15 121 7 28 -2 28 139 3 126 -22 306 15 314 65 2 11
21 36 42 55 57 54 83 142 84 294 l1 118 90 23 c50 13 176 50 280 83 105 33
213 65 242 72 72 16 292 129 452 230 171 108 308 238 364 346 39 75 44 102 27
134 -16 31 -3 62 76 181 40 61 80 130 88 152 47 132 77 266 96 420 22 183 29
209 114 399 55 126 75 189 96 300 7 36 26 79 51 118 84 130 161 309 197 455
23 97 23 290 -1 367 -22 70 -81 161 -135 210 l-42 38 0 334 0 334 -118 234
c-65 128 -134 258 -154 288 -56 84 -58 130 -14 454 16 116 10 152 -48 332 -27
83 -57 146 -121 253 -86 145 -109 177 -202 288 -63 75 -77 102 -92 171 -16 76
-78 195 -135 261 -52 59 -70 94 -131 254 -48 128 -115 226 -243 359 -163 169
-354 307 -423 308 -14 0 -53 -14 -87 -31z m258 -359 c19 -10 62 -38 95 -62
249 -184 345 -365 345 -649 0 -80 4 -121 13 -133 13 -17 15 -17 35 9 13 16 32
59 43 97 19 61 23 67 34 51 34 -50 66 -266 69 -463 1 -116 -1 -129 -26 -182
-37 -80 -81 -141 -160 -225 -62 -66 -86 -113 -57 -113 6 0 53 23 104 50 51 28
96 50 100 50 19 0 -33 -249 -90 -428 -24 -77 -32 -90 -98 -156 -40 -40 -115
-102 -167 -137 -67 -44 -90 -64 -77 -67 29 -6 116 26 181 65 47 29 60 33 67
22 15 -22 0 -80 -30 -124 -15 -22 -65 -99 -109 -171 -79 -127 -137 -194 -168
-194 -19 0 -103 -42 -134 -69 -33 -27 -8 -28 55 -1 60 26 75 25 75 -3 0 -47
-227 -372 -279 -398 -14 -8 -61 -35 -105 -61 -43 -26 -95 -51 -115 -54 -49 -9
-88 -30 -101 -54 -18 -33 15 -36 110 -11 47 13 100 26 119 29 l34 5 -22 -31
c-35 -50 -170 -190 -252 -262 -66 -59 -86 -70 -164 -94 -79 -25 -89 -26 -97
-12 -5 9 -15 16 -23 16 -21 0 -22 17 -8 109 7 47 14 150 16 228 2 124 0 144
-15 160 -13 12 -21 14 -29 6 -6 -6 -17 -85 -24 -175 -7 -89 -20 -182 -29 -206
-41 -113 -144 -263 -299 -434 -206 -227 -631 -526 -1011 -711 -33 -16 -95 -35
-139 -44 -144 -27 -221 -72 -262 -153 -29 -57 -33 -105 -9 -114 20 -8 47 7
106 56 112 92 209 90 318 -8 65 -59 85 -105 85 -199 0 -96 -27 -157 -98 -222
-58 -53 -88 -68 -167 -83 -36 -7 -76 -19 -89 -28 l-25 -15 25 -20 c22 -17 33
-18 114 -11 129 11 173 7 232 -22 64 -31 108 -80 145 -161 41 -91 45 -139 18
-193 -30 -58 -88 -135 -138 -184 l-40 -38 -109 26 c-60 14 -118 26 -129 26
-28 0 -44 -19 -44 -53 0 -30 23 -56 134 -156 42 -37 81 -113 91 -177 16 -100
-48 -193 -172 -251 -39 -18 -87 -33 -106 -33 -31 0 -40 7 -71 48 -53 72 -123
134 -148 130 -46 -7 -45 -32 5 -115 96 -158 129 -237 131 -305 1 -81 -22 -122
-94 -165 -40 -24 -66 -33 -100 -33 -52 0 -77 14 -186 100 -62 50 -82 61 -108
58 -23 -2 -35 -11 -45 -32 -16 -33 -7 -55 54 -140 48 -66 69 -142 62 -225 -2
-36 -10 -78 -17 -94 -18 -37 -119 -86 -192 -94 -69 -7 -102 10 -142 73 -29 45
-52 56 -63 28 -16 -41 134 -409 167 -409 24 0 24 58 0 111 -11 26 -19 49 -16
51 9 9 70 -76 126 -176 65 -117 81 -137 105 -127 20 7 19 37 -5 125 -48 172
11 87 73 -104 19 -60 49 -175 66 -255 50 -239 51 -211 -11 -253 -64 -44 -92
-46 -144 -8 -92 66 -123 125 -154 291 -28 155 -42 196 -112 329 -76 142 -83
146 -243 138 -119 -6 -205 -23 -306 -61 -72 -27 -228 -46 -380 -46 -79 0 -101
3 -119 18 l-23 18 22 50 c38 86 119 155 219 188 62 21 76 39 103 135 38 139
127 286 208 344 81 58 85 69 92 243 6 139 9 158 33 208 36 73 73 102 241 189
77 39 172 93 211 119 86 58 175 151 210 221 25 48 26 57 22 171 -9 219 -77
316 -222 316 -22 0 -41 12 -73 45 -74 78 -123 202 -123 314 0 103 115 390 204
508 58 77 190 210 269 273 36 27 76 65 89 83 14 17 67 57 118 87 51 30 126 80
167 111 40 30 256 170 480 310 675 421 792 511 1120 859 216 229 512 622 685
911 167 277 303 646 369 1004 19 98 23 157 23 320 1 198 1 202 -42 405 -46
224 -78 330 -127 430 -54 111 -60 131 -44 141 16 10 38 4 89 -21z m884 -1210
c113 -150 203 -342 225 -480 25 -153 -55 -351 -213 -528 -31 -34 -60 -71 -66
-82 -22 -41 27 -21 122 50 51 38 99 70 106 70 21 0 14 -72 -19 -208 -37 -150
-68 -242 -116 -337 -52 -104 -97 -157 -195 -230 -48 -36 -88 -70 -88 -76 0
-21 52 -6 148 41 77 37 102 46 102 34 0 -31 -62 -163 -128 -271 -73 -122 -68
-117 -308 -277 -62 -41 -115 -79 -119 -85 -12 -21 53 -11 134 19 45 16 81 25
81 19 0 -33 -149 -255 -212 -316 -24 -23 -88 -67 -143 -98 -123 -69 -245 -147
-245 -157 0 -5 26 -8 59 -8 48 0 63 4 85 25 15 14 31 25 36 25 44 0 -19 -78
-221 -275 -157 -153 -180 -166 -286 -166 -100 0 -99 1 112 221 121 126 158
173 153 197 -2 13 -18 3 -73 -46 -74 -67 -147 -121 -164 -121 -40 0 19 86 177
257 139 151 208 237 236 291 10 19 32 53 51 77 33 44 72 131 63 140 -13 13
-42 -17 -161 -169 -134 -170 -272 -326 -288 -326 -5 0 -14 12 -19 26 -13 34
-2 54 113 197 247 307 508 732 643 1047 119 278 247 696 228 745 -10 25 -18 7
-64 -134 -23 -68 -45 -131 -51 -140 -20 -31 0 97 26 164 49 132 114 513 135
798 6 78 13 162 16 186 l6 43 25 -23 c14 -13 57 -67 97 -119z m-370 -1216
c-55 -149 -174 -400 -266 -563 -86 -151 -301 -481 -429 -657 -41 -56 -86 -122
-101 -148 -29 -49 -62 -61 -73 -26 -9 27 12 62 96 160 265 312 513 715 698
1134 70 159 98 212 107 203 3 -3 -11 -49 -32 -103z m720 -57 c38 -50 83 -156
113 -265 34 -124 39 -295 10 -382 -30 -90 -85 -194 -133 -250 -70 -82 -53 -93
53 -34 88 50 93 42 59 -88 -27 -101 -129 -326 -194 -428 -39 -61 -170 -165
-257 -205 -74 -34 -101 -57 -90 -76 9 -14 82 -4 147 22 56 22 68 23 68 8 0
-25 -112 -171 -200 -259 -100 -101 -146 -130 -290 -180 -133 -46 -130 -68 11
-77 l93 -6 -65 -61 c-103 -95 -292 -195 -371 -196 -69 0 -56 -29 22 -51 25 -7
49 -15 53 -19 7 -6 -166 -147 -303 -247 -113 -82 -180 -111 -180 -80 0 8 19
43 42 78 47 74 109 225 143 353 13 48 32 100 41 115 10 14 95 103 190 196 167
165 234 243 234 272 0 19 -21 3 -207 -169 -161 -148 -219 -195 -229 -185 -12
11 42 74 244 281 112 115 247 263 300 330 173 216 368 528 449 721 70 164 48
167 -37 5 -83 -159 -166 -285 -335 -510 -110 -146 -180 -226 -330 -376 -217
-219 -365 -343 -365 -306 0 4 88 102 196 217 304 326 416 473 588 774 199 347
340 665 418 945 48 175 65 195 112 133z m263 -1199 c56 -83 62 -103 74 -226
20 -214 -17 -336 -176 -577 -84 -127 -107 -150 -212 -219 -83 -54 -104 -86
-58 -86 33 0 84 26 163 84 34 25 64 46 66 46 7 0 -23 -117 -39 -157 -27 -64
-121 -196 -192 -269 -116 -118 -168 -147 -405 -219 -83 -26 -119 -47 -104 -62
4 -4 52 -6 108 -5 114 3 112 6 53 -83 -51 -76 -101 -118 -202 -168 -101 -51
-166 -73 -241 -82 -67 -7 -105 -24 -92 -39 5 -7 36 -25 70 -41 33 -16 60 -31
60 -34 0 -8 -149 -98 -185 -111 -16 -6 -70 -14 -120 -16 -147 -8 -164 -19
-105 -62 17 -13 30 -27 30 -33 0 -11 -167 -93 -212 -104 -34 -9 -35 1 -6 56
18 35 21 57 20 129 -1 60 2 91 10 98 7 6 45 27 83 47 195 104 479 322 433 332
-19 5 -65 -20 -224 -123 -129 -84 -318 -178 -339 -170 -44 17 -1 52 220 180
226 131 736 562 774 654 6 15 31 40 56 55 59 38 147 134 221 242 80 118 99
154 85 168 -18 18 -47 -5 -119 -98 -81 -106 -340 -369 -535 -542 -173 -155
-293 -244 -504 -376 -236 -146 -355 -204 -383 -187 -22 14 2 34 129 106 156
90 252 154 404 272 408 317 789 702 981 992 115 174 267 462 343 653 8 20 18
37 22 37 3 0 25 -28 48 -62z m-2040 -230 c18 -13 43 -43 55 -67 18 -38 20 -55
15 -140 -13 -224 -113 -430 -313 -644 -79 -84 -433 -324 -674 -456 -185 -102
-301 -148 -463 -185 -53 -12 -48 56 7 109 18 16 155 93 304 169 263 134 330
175 317 196 -8 12 -45 -2 -270 -103 -246 -110 -381 -167 -395 -167 -7 0 -10
13 -8 32 3 31 10 36 113 88 167 85 352 210 457 308 63 59 66 100 5 52 -14 -11
-43 -28 -64 -36 -21 -9 -103 -55 -183 -102 -185 -110 -325 -182 -350 -182 -33
0 -23 27 23 58 23 16 101 62 172 102 269 150 395 246 395 302 0 15 -2 28 -5
28 -3 0 -79 -47 -168 -103 -291 -186 -448 -267 -519 -267 -73 0 -41 30 142
136 353 203 604 391 869 648 86 84 177 164 201 178 114 65 275 87 337 46z
m317 -801 c66 -43 80 -127 46 -257 -25 -92 -67 -193 -99 -239 -12 -16 -21 -36
-21 -44 0 -9 -8 -22 -19 -29 -10 -7 -21 -23 -25 -36 -4 -12 -24 -34 -44 -49
-20 -15 -68 -54 -106 -87 -54 -47 -115 -84 -290 -171 -282 -141 -402 -182
-692 -235 -254 -46 -318 -50 -334 -21 -27 52 -17 58 218 140 248 86 318 118
365 165 l42 41 -32 3 c-20 2 -99 -20 -210 -58 -285 -98 -384 -123 -398 -101
-8 14 64 54 222 122 170 74 305 148 380 208 121 98 72 92 -172 -19 -93 -43
-231 -100 -305 -128 -193 -71 -210 -76 -222 -64 -14 14 46 48 217 122 466 204
797 405 1015 615 136 132 171 146 337 141 74 -2 108 -7 127 -19z m1380 -611
c8 -72 0 -132 -36 -251 -41 -135 -98 -250 -159 -318 -28 -31 -103 -99 -167
-151 -64 -51 -125 -103 -136 -114 -18 -21 -18 -21 8 -33 23 -11 37 -8 104 19
88 37 102 39 102 15 0 -21 -162 -180 -255 -251 -139 -105 -248 -142 -417 -142
-71 0 -90 -3 -95 -15 -9 -24 26 -55 69 -61 21 -4 38 -12 38 -19 0 -38 -150
-120 -291 -160 -52 -15 -164 -49 -249 -77 -171 -55 -212 -58 -257 -16 -38 35
-47 58 -31 73 7 7 54 30 103 50 141 57 168 81 98 87 l-38 3 45 28 c25 16 78
46 119 69 40 22 69 44 65 48 -5 5 -61 -2 -124 -16 -63 -14 -135 -24 -160 -22
l-45 3 85 29 c211 71 524 212 700 316 117 68 320 250 320 286 0 19 -15 11
-162 -77 -243 -147 -510 -270 -836 -383 -110 -38 -146 -44 -140 -23 6 20 138
81 265 121 121 39 478 218 664 332 252 155 466 337 652 554 95 111 133 150
146 150 5 0 11 -24 15 -54z m-1686 -451 c98 -23 115 -35 136 -99 27 -78 18
-145 -30 -237 -30 -57 -50 -81 -99 -117 -122 -89 -270 -159 -422 -198 -187
-47 -692 -64 -928 -30 -139 19 -195 36 -195 59 0 22 32 27 205 27 210 1 347
14 426 41 74 25 195 84 204 99 10 17 -39 11 -86 -9 -63 -28 -237 -44 -432 -40
-182 4 -208 12 -171 50 26 25 97 44 244 63 137 18 287 49 392 82 75 24 129 56
116 69 -3 4 -66 -5 -140 -19 -136 -25 -247 -40 -398 -51 -66 -5 -89 -3 -104 8
-43 32 1 47 214 78 223 31 657 151 778 214 39 20 61 24 137 24 50 1 118 -6
153 -14z m-1313 -799 c106 -24 177 -33 445 -57 269 -24 474 -107 595 -241 53
-59 128 -204 145 -281 11 -47 10 -62 -5 -111 -10 -31 -32 -80 -49 -109 -34
-57 -66 -74 -162 -84 l-50 -5 -149 111 c-144 109 -210 151 -237 151 -8 0 -46
16 -86 35 -40 19 -112 47 -160 61 -230 71 -552 240 -552 289 0 20 23 19 100
-6 76 -24 280 -39 280 -21 0 16 -39 34 -140 67 -113 37 -180 65 -180 77 0 5
12 7 28 4 111 -22 460 -41 482 -27 22 15 -25 29 -150 47 -116 16 -192 37 -210
60 -7 7 -24 14 -38 14 -25 0 -62 25 -62 42 0 13 39 9 155 -16z m1320 -126 c3
-5 -3 -10 -14 -10 -12 0 -21 5 -21 10 0 6 6 10 14 10 8 0 18 -4 21 -10z m-135
-19 c0 -6 -5 -13 -10 -16 -15 -9 -43 3 -35 15 8 13 45 13 45 1z m-1440 -266
c50 -25 140 -75 200 -110 60 -36 117 -65 127 -65 10 0 56 -17 103 -36 47 -20
130 -53 186 -73 124 -46 186 -81 244 -141 150 -154 175 -421 52 -549 -39 -41
-60 -46 -257 -67 l-60 -6 -96 98 c-53 55 -150 157 -215 228 -85 92 -158 158
-256 232 -175 132 -330 279 -326 308 5 33 32 30 78 -9 93 -77 350 -177 350
-136 0 5 -41 41 -91 81 -50 39 -89 74 -86 77 3 3 57 -15 119 -40 140 -56 155
-60 163 -47 16 25 -11 53 -103 104 -119 68 -264 166 -270 184 -8 25 50 11 138
-33z m-284 -375 c38 -28 105 -76 149 -107 85 -60 378 -348 444 -436 21 -29 61
-95 87 -147 40 -77 49 -104 48 -145 -1 -105 -74 -225 -171 -282 l-44 -25 -105
27 c-83 22 -110 34 -128 56 -13 15 -69 136 -126 268 -110 260 -161 350 -293
518 -114 146 -147 194 -147 210 0 24 16 14 111 -69 138 -120 275 -205 295
-185 10 10 -22 47 -90 103 -89 74 -87 95 4 34 32 -21 147 -70 166 -70 8 0 14
4 14 8 0 5 -54 52 -120 107 -138 112 -206 185 -172 185 5 0 40 -23 78 -50z
m-108 -76 c12 -8 27 -24 33 -35 9 -18 8 -19 -8 -11 -24 13 -69 62 -57 62 5 0
20 -7 32 -16z m-198 -166 c43 -46 161 -194 197 -248 16 -25 39 -70 51 -100 11
-30 45 -112 76 -182 30 -70 60 -146 66 -168 24 -91 -33 -224 -113 -260 -51
-24 -162 -27 -212 -6 -48 20 -62 56 -100 247 -19 92 -40 190 -49 217 -21 74
-81 207 -132 293 -24 42 -44 79 -44 82 0 36 140 -97 215 -203 85 -120 116
-136 100 -52 -10 52 -38 104 -116 213 -38 53 -69 99 -69 103 0 20 51 -28 138
-132 103 -121 172 -192 172 -177 0 15 -106 209 -162 295 -73 114 -71 110 -59
110 6 0 24 -15 41 -32z m-420 -244 c0 -8 -7 -14 -15 -14 -15 0 -21 21 -9 33
10 9 24 -2 24 -19z"/>
<path d="M10153 5250 c-16 -22 -53 -81 -83 -131 -30 -50 -85 -123 -122 -162
-66 -70 -82 -102 -55 -113 40 -15 151 78 215 180 50 78 92 185 92 230 0 47
-13 45 -47 -4z"/>
<path d="M8811 3583 c-21 -17 -21 -19 -6 -69 27 -91 75 -106 105 -33 11 26 11
38 -1 73 -12 35 -19 41 -45 44 -18 2 -39 -4 -53 -15z"/>
<path d="M8958 2903 c-12 -3 -18 -14 -18 -32 0 -36 41 -115 62 -119 21 -4 88
55 88 79 0 35 -87 83 -132 72z"/>
<path d="M8737 2180 c-15 -12 -27 -27 -27 -34 0 -14 69 -86 82 -86 14 0 50 88
46 113 -4 32 -64 36 -101 7z"/>
<path d="M8345 1640 c-10 -33 19 -70 56 -70 38 0 48 24 22 58 -26 35 -69 41
-78 12z"/>
<path d="M7901 1244 c-17 -14 -29 -30 -25 -35 8 -13 78 -11 92 3 17 17 15 45
-4 52 -25 9 -31 8 -63 -20z"/>
<path d="M8010 313 c1 -32 139 -143 176 -143 44 0 25 27 -62 89 -78 56 -114
73 -114 54z"/>
<path d="M11183 3925 c-82 -85 -110 -125 -85 -125 21 0 129 91 172 145 31 39
39 75 18 75 -7 0 -55 -43 -105 -95z"/>
<path d="M10410 4604 c-6 -15 -15 -58 -20 -98 -19 -135 -61 -223 -154 -324
-75 -81 -102 -120 -92 -130 12 -12 135 60 195 115 98 88 151 242 132 380 -5
34 -12 67 -16 73 -11 19 -35 10 -45 -16z"/>
<path d="M10282 4468 c-22 -24 -82 -145 -82 -165 0 -40 65 22 107 102 37 71
21 111 -25 63z"/>
<path d="M10736 3861 c-4 -5 -9 -45 -12 -88 -4 -43 -15 -97 -25 -120 -11 -23
-19 -47 -19 -53 0 -16 -176 -195 -232 -237 -27 -19 -48 -41 -48 -49 0 -46 142
27 236 121 95 95 154 210 162 314 4 55 1 76 -12 96 -17 25 -40 33 -50 16z"/>
<path d="M10512 3605 c-72 -67 -88 -95 -53 -95 36 0 139 121 129 152 -2 5 -36
-20 -76 -57z"/>
<path d="M10570 2744 c-92 -94 -229 -184 -356 -234 -42 -17 -93 -39 -113 -49
-36 -19 -36 -19 -11 -26 35 -9 215 20 281 44 65 25 177 116 219 179 22 33 30
57 30 89 0 24 -1 43 -3 43 -2 0 -23 -21 -47 -46z"/>
<path d="M10345 2721 c-59 -21 -135 -67 -135 -81 0 -6 11 -15 25 -22 19 -8 29
-8 43 3 11 8 47 33 81 57 34 24 59 47 56 53 -8 12 -11 11 -70 -10z"/>
<path d="M10195 1632 c-40 -25 -58 -49 -51 -67 3 -8 14 -15 24 -15 23 0 102
66 102 86 0 20 -39 18 -75 -4z"/>
<path d="M10324 1579 c-10 -12 -54 -44 -96 -72 -43 -28 -78 -54 -78 -58 0 -47
47 -51 110 -8 57 39 81 72 90 121 8 43 2 47 -26 17z"/>
<path d="M9878 1063 c-5 -98 -19 -129 -73 -163 -27 -17 -50 -20 -138 -20 -88
0 -105 -2 -101 -14 8 -21 62 -44 121 -51 44 -6 58 -4 102 21 32 17 62 44 81
72 30 45 55 138 47 169 -3 10 -8 30 -11 46 -12 52 -24 27 -28 -60z"/>
<path d="M9717 1043 c-11 -10 -8 -71 3 -78 22 -14 63 44 53 73 -5 13 -45 17
-56 5z"/>
<path d="M9197 566 c-39 -14 -77 -42 -77 -58 0 -13 47 -9 83 6 18 8 46 26 62
40 l30 25 -30 0 c-16 0 -47 -6 -68 -13z"/>
<path d="M9299 524 c-66 -50 -112 -67 -193 -73 -45 -3 -81 -11 -83 -17 -7 -20
56 -73 93 -80 83 -15 190 57 214 145 6 24 10 45 7 47 -2 2 -19 -8 -38 -22z"/>
<path d="M8603 481 c-13 -3 -32 -14 -44 -24 -28 -24 -12 -41 37 -40 45 1 73
26 58 50 -13 20 -22 23 -51 14z"/>
<path d="M8665 348 c-65 -14 -165 -49 -165 -58 0 -41 87 -52 156 -21 37 17 74
53 74 72 0 13 -25 16 -65 7z"/>
<path d="M1775 9100 c-76 -40 -140 -91 -258 -208 -205 -202 -317 -377 -352
-554 -3 -15 -39 -69 -80 -120 -84 -103 -129 -189 -139 -261 -8 -65 -27 -98
-101 -177 -35 -37 -73 -87 -86 -111 -12 -24 -37 -62 -56 -84 -71 -81 -180
-337 -213 -500 -16 -77 -6 -339 14 -370 41 -63 26 -169 -38 -265 -25 -36 -94
-163 -155 -281 l-111 -216 0 -338 0 -338 -60 -63 c-70 -73 -116 -162 -131
-255 -13 -76 -5 -239 16 -325 28 -121 113 -313 193 -439 22 -35 38 -81 53
-150 22 -103 49 -179 116 -325 56 -119 70 -172 77 -275 16 -225 117 -547 204
-647 46 -52 54 -76 62 -175 6 -86 9 -97 46 -150 52 -76 165 -196 234 -247 30
-22 89 -59 130 -82 41 -23 111 -63 156 -90 108 -67 242 -118 587 -225 160 -49
297 -95 304 -101 10 -8 12 -30 7 -87 -12 -146 7 -211 108 -359 43 -64 94 -76
296 -69 l164 5 -8 -126 c-5 -70 -9 -168 -9 -219 0 -87 1 -93 31 -130 83 -103
181 -142 376 -150 l127 -6 6 -46 c15 -116 28 -179 44 -216 21 -47 101 -124
158 -154 88 -44 206 -45 309 0 72 30 117 26 159 -17 20 -19 69 -51 110 -71
l75 -35 181 1 c173 1 182 0 212 -21 27 -19 45 -23 112 -23 96 0 145 16 197 63
57 51 72 89 106 259 36 178 73 295 109 342 14 18 51 45 82 60 50 23 68 26 161
25 63 0 147 -9 210 -22 245 -49 471 -55 560 -15 52 23 100 74 100 106 0 30
-132 156 -259 247 -56 40 -107 82 -113 93 -6 12 -19 55 -30 97 -29 117 -60
170 -167 282 l-98 103 -6 125 c-11 259 -98 396 -302 483 -104 44 -244 135
-312 203 -59 58 -83 121 -83 213 0 90 32 132 155 201 122 69 210 198 236 344
15 91 7 239 -21 345 -21 83 -60 174 -80 186 -6 4 -22 30 -37 58 -63 126 -265
339 -433 457 -58 41 -197 142 -310 225 -251 185 -342 247 -535 360 -324 191
-529 337 -710 504 -60 56 -168 154 -238 218 -153 139 -206 201 -332 381 -53
75 -138 196 -190 267 -52 72 -104 149 -115 171 -11 23 -30 50 -41 60 -46 42
-189 306 -260 480 -79 196 -103 280 -140 498 -52 297 -51 558 3 791 27 119 88
273 204 522 115 246 125 273 112 297 -5 10 -37 35 -71 57 -79 51 -137 54 -222
9z m8 -364 c-1 -15 -27 -89 -57 -164 -57 -141 -78 -228 -131 -535 -30 -179
-31 -278 -4 -462 93 -638 326 -1110 907 -1840 75 -93 179 -213 231 -265 226
-225 541 -455 1091 -795 140 -87 314 -199 387 -249 73 -50 171 -115 218 -145
105 -67 371 -313 447 -412 101 -134 178 -291 217 -446 12 -45 21 -96 21 -115
0 -46 -44 -175 -83 -239 -40 -66 -80 -94 -149 -103 -113 -15 -170 -91 -189
-252 -15 -127 -5 -201 34 -261 73 -111 189 -198 417 -314 223 -113 260 -170
260 -400 0 -70 4 -139 9 -152 5 -13 39 -48 75 -77 109 -86 199 -231 226 -365
15 -73 28 -89 105 -125 114 -52 234 -163 235 -217 0 -41 -32 -48 -205 -47
-175 2 -259 15 -409 65 -114 38 -195 49 -285 39 -81 -9 -101 -22 -151 -99 -44
-70 -87 -187 -125 -341 -55 -222 -85 -280 -164 -324 -68 -37 -89 -34 -149 22
l-52 47 39 166 c46 194 72 286 112 391 27 68 52 108 63 97 2 -2 -7 -38 -20
-79 -28 -90 -31 -138 -7 -147 22 -8 41 16 115 150 86 155 138 209 88 92 -11
-26 -20 -60 -20 -75 0 -101 82 25 159 243 30 85 41 167 22 167 -5 0 -25 -22
-45 -50 -19 -27 -47 -57 -61 -66 -38 -25 -101 -20 -181 13 -81 34 -110 69
-119 147 -13 100 12 168 104 293 28 38 24 69 -17 113 l-27 31 -90 -76 c-116
-99 -135 -108 -202 -103 -62 5 -123 43 -161 98 -21 30 -23 44 -19 100 5 77 39
155 122 281 30 46 55 86 55 90 0 4 -8 17 -18 29 -30 37 -62 20 -141 -74 -39
-47 -80 -87 -91 -91 -48 -15 -162 45 -230 122 -45 51 -75 130 -67 177 8 51 71
140 158 223 82 79 95 106 63 137 -20 21 -53 20 -144 -4 -115 -30 -133 -28
-185 25 -74 73 -135 182 -135 240 0 79 65 195 140 250 82 61 118 68 242 54 82
-9 114 -10 133 -1 52 24 26 48 -80 73 -165 39 -268 151 -269 293 0 104 51 190
155 257 81 52 163 35 268 -54 57 -49 85 -58 95 -31 20 51 -11 114 -88 181 -58
51 -114 75 -181 79 -53 2 -81 13 -235 90 -302 152 -672 415 -885 629 -144 143
-233 262 -302 401 -42 86 -46 98 -55 210 -15 192 -18 218 -28 234 -8 13 -12
13 -27 -3 -15 -15 -19 -39 -21 -149 -3 -111 0 -147 19 -225 22 -90 22 -93 4
-113 -33 -36 -162 -18 -244 35 -36 23 -234 220 -284 283 -49 61 -41 63 113 21
95 -25 128 -22 110 11 -13 24 -38 38 -99 54 -56 14 -238 115 -268 149 -50 54
-253 342 -253 359 0 22 25 23 100 3 72 -19 80 -18 50 6 -30 26 -105 64 -142
73 -65 15 -320 412 -302 471 4 11 8 22 10 24 1 1 29 -13 62 -34 68 -42 151
-70 165 -56 6 6 -23 30 -75 64 -174 112 -238 212 -307 479 -29 112 -52 248
-43 248 9 0 97 -53 143 -86 26 -19 56 -34 68 -34 21 0 21 1 6 30 -9 17 -43 60
-76 97 -76 84 -112 136 -152 221 -31 64 -32 72 -30 182 2 130 26 333 48 408
16 53 42 85 49 61 2 -8 9 -32 15 -54 14 -50 53 -118 66 -117 13 2 23 84 24
207 1 111 13 160 61 256 93 183 241 332 389 390 56 22 67 19 64 -15z m-829
-1117 c3 -34 6 -92 6 -128 0 -105 38 -406 65 -516 14 -55 25 -109 25 -121 0
-11 20 -88 44 -170 55 -191 58 -204 47 -204 -9 0 -71 148 -71 169 0 23 -42
121 -52 121 -19 0 -2 -107 37 -240 148 -504 402 -996 754 -1458 207 -272 207
-272 181 -312 -13 -21 -131 101 -304 318 -76 94 -142 172 -147 172 -58 0 135
-289 361 -540 119 -132 175 -209 168 -230 -4 -13 -61 25 -164 109 -44 36 -80
58 -82 52 -8 -23 54 -98 196 -238 79 -78 142 -148 140 -155 -7 -21 -150 -23
-193 -2 -39 18 -297 269 -363 353 -38 48 -45 71 -22 71 5 0 21 -11 36 -25 22
-21 37 -25 85 -25 33 0 59 3 59 8 0 10 -155 109 -264 168 -107 59 -179 132
-277 282 -70 106 -84 141 -51 127 108 -46 213 -69 212 -47 -1 4 -60 47 -133
95 -213 142 -230 156 -270 215 -45 67 -157 287 -157 308 0 22 20 17 113 -26
81 -38 127 -50 127 -32 0 12 -57 63 -114 103 -48 34 -140 147 -192 234 -14 25
-35 85 -45 133 -11 48 -36 151 -56 230 -20 78 -34 145 -31 148 11 11 84 -28
154 -82 125 -95 127 -67 6 84 -88 112 -150 219 -172 302 -36 133 19 387 113
528 60 90 209 282 218 282 3 0 9 -28 13 -61z m322 -1404 c53 -116 110 -244
128 -285 18 -41 55 -109 83 -150 27 -41 60 -95 73 -120 42 -84 271 -404 423
-590 86 -104 96 -125 75 -147 -9 -9 -23 -13 -31 -10 -7 3 -62 76 -121 164 -59
87 -152 223 -207 303 -55 80 -141 213 -191 295 -150 250 -348 673 -348 747 0
39 17 9 116 -207z m-748 72 c6 -7 42 -107 80 -222 115 -345 231 -601 417 -916
53 -90 108 -185 121 -212 34 -66 185 -243 433 -506 116 -124 211 -229 211
-233 0 -37 -148 87 -376 316 -156 157 -227 237 -323 366 -162 217 -234 327
-321 487 -93 173 -113 189 -64 51 31 -85 106 -239 165 -335 167 -275 356 -510
641 -796 197 -197 223 -229 210 -253 -8 -14 -40 13 -199 164 -201 192 -241
227 -249 219 -20 -19 122 -182 297 -343 127 -115 144 -139 160 -212 17 -83 52
-178 118 -324 64 -141 69 -158 48 -158 -30 0 -265 173 -384 283 -62 57 -56 87
17 87 33 0 49 18 29 31 -8 5 -27 9 -44 9 -80 2 -292 119 -383 213 l-43 44 92
6 c50 3 96 10 102 16 16 16 -8 37 -61 51 -42 11 -104 35 -200 76 -19 8 -58 38
-88 66 -83 78 -256 310 -242 323 3 3 32 -6 66 -20 75 -31 137 -41 147 -26 10
18 -14 42 -65 64 -66 29 -182 112 -233 165 -74 79 -191 320 -238 487 -32 118
-25 136 41 92 37 -25 130 -60 138 -52 3 2 -26 37 -64 78 -69 73 -74 82 -131
242 -23 64 -25 80 -20 185 8 178 70 383 141 468 31 35 38 38 54 19z m-179
-1349 c224 -466 386 -694 751 -1058 239 -238 599 -521 864 -679 152 -90 189
-122 168 -143 -12 -12 -182 78 -350 184 -51 32 -108 65 -125 74 -75 39 -383
281 -507 400 -188 179 -384 384 -459 482 -66 85 -101 105 -101 59 0 -64 281
-407 333 -407 8 0 20 -13 25 -29 37 -106 538 -521 842 -698 52 -30 112 -67
133 -80 40 -27 50 -63 18 -63 -36 0 -208 89 -375 194 -116 73 -173 103 -180
96 -25 -25 141 -158 369 -297 146 -88 141 -81 164 -233 7 -41 20 -89 31 -107
l19 -33 -27 0 c-26 1 -100 31 -192 79 l-45 24 38 32 c63 55 54 61 -105 69
-105 5 -137 17 -254 91 l-58 37 71 33 c39 18 73 37 76 42 10 16 -41 34 -112
39 -46 4 -91 17 -151 44 -47 21 -101 44 -120 51 -44 17 -146 122 -183 188
l-28 51 100 -2 c171 -3 155 23 -53 89 -161 51 -237 93 -332 188 -120 119 -197
241 -229 364 -9 35 -14 65 -12 68 3 2 39 -21 81 -51 103 -74 166 -93 166 -51
0 8 -44 43 -98 78 -95 64 -99 68 -191 202 -91 134 -143 237 -163 323 -5 23 -8
118 -6 210 3 140 6 173 22 202 19 36 84 120 92 120 3 0 44 -82 93 -182z m2111
-100 c95 -23 189 -74 243 -135 237 -262 555 -508 947 -733 201 -115 233 -147
138 -138 -68 7 -228 88 -450 230 -94 60 -185 116 -200 124 -27 14 -28 14 -28
-13 0 -57 147 -169 425 -322 162 -90 196 -114 179 -131 -20 -20 -115 25 -364
171 -154 90 -287 155 -297 145 -23 -24 343 -284 527 -375 36 -18 72 -36 80
-40 17 -9 27 -71 11 -71 -6 0 -156 63 -333 140 -176 77 -323 138 -326 136 -25
-26 69 -85 374 -236 229 -113 246 -123 260 -156 8 -20 14 -48 12 -63 -3 -23
-7 -26 -38 -23 -129 9 -576 228 -800 390 -58 42 -146 104 -197 139 -108 75
-191 162 -283 299 -111 166 -167 346 -158 509 5 98 27 144 78 162 37 14 121
10 200 -9z m-207 -808 c27 -12 90 -62 140 -109 145 -136 259 -221 435 -323
137 -80 578 -301 672 -336 47 -18 96 -38 110 -45 28 -14 41 -57 17 -57 -33 0
-404 149 -586 236 -74 35 -142 64 -152 64 -35 0 -33 -23 5 -56 34 -30 330
-182 549 -283 54 -25 87 -46 87 -56 0 -9 -9 -15 -23 -15 -45 0 -257 64 -432
130 -119 45 -146 52 -164 41 -45 -29 108 -113 371 -205 223 -78 246 -92 234
-142 l-7 -27 -82 6 c-103 7 -483 80 -591 113 -44 14 -189 80 -321 146 -181 91
-261 137 -325 188 -47 37 -95 72 -107 78 -12 7 -25 26 -28 44 -4 18 -19 46
-32 62 -28 34 -79 133 -116 226 -48 122 -45 260 7 309 36 34 72 41 186 37 84
-2 114 -7 153 -26z m-1561 -672 c256 -299 504 -499 843 -681 325 -173 414
-216 497 -234 85 -19 260 -98 266 -120 6 -22 -34 -15 -174 32 -229 77 -645
272 -859 404 -134 82 -150 66 -42 -40 161 -159 449 -324 801 -458 109 -42 201
-82 204 -89 5 -15 -13 -13 -178 24 -158 35 -156 23 13 -71 48 -27 87 -52 87
-56 0 -3 -14 -9 -31 -13 -17 -3 -28 -10 -24 -16 9 -15 114 -66 162 -79 46 -13
73 -34 73 -58 0 -8 -15 -30 -34 -49 -43 -43 -77 -44 -194 -4 -48 17 -130 42
-182 56 -214 57 -304 92 -372 146 -47 37 -49 62 -7 74 37 11 59 38 43 54 -5 5
-59 15 -120 20 -229 22 -332 78 -546 298 -117 119 -115 135 5 88 88 -35 115
-40 132 -26 21 17 9 29 -142 147 -67 52 -137 111 -156 132 -83 92 -181 318
-196 454 -11 98 -5 187 14 187 7 0 60 -55 117 -122z m1965 -444 c312 -104 448
-136 756 -179 60 -8 113 -17 118 -20 16 -10 10 -34 -12 -46 -33 -17 -282 6
-497 47 -74 14 -137 23 -140 19 -13 -13 41 -45 118 -69 91 -29 281 -68 430
-89 148 -20 246 -68 199 -98 -19 -12 -300 -11 -432 1 -60 6 -127 18 -150 26
-88 33 -129 27 -71 -10 33 -23 189 -82 250 -97 27 -6 160 -14 296 -18 135 -3
250 -10 254 -14 14 -14 -12 -42 -52 -55 -61 -21 -373 -34 -659 -29 -246 5
-266 7 -375 35 -358 92 -576 252 -605 445 -8 49 16 130 48 165 34 36 188 74
267 64 19 -2 135 -37 257 -78z m1042 -740 c-12 -12 -35 -26 -51 -30 -17 -3
-52 -17 -78 -31 -36 -19 -73 -27 -156 -34 -112 -10 -169 -23 -180 -41 -9 -14
404 -4 461 11 22 5 42 8 45 5 10 -11 -34 -33 -138 -70 -127 -44 -162 -61 -162
-76 0 -19 215 -3 284 21 33 12 65 21 73 21 22 0 15 -24 -14 -52 -79 -74 -268
-164 -583 -278 -215 -78 -314 -130 -432 -228 -135 -111 -145 -115 -205 -101
-63 15 -92 31 -125 66 -31 32 -65 108 -74 163 -14 84 65 266 158 366 69 73
106 97 234 153 117 50 197 68 401 86 207 19 286 29 433 59 63 12 119 21 123
18 5 -2 -1 -15 -14 -28z m-1429 -124 c0 -5 -9 -10 -20 -10 -11 0 -20 5 -20 10
0 6 9 10 20 10 11 0 20 -4 20 -10z m155 -19 c7 -12 -31 -25 -45 -16 -6 4 -8
11 -5 16 8 12 42 12 50 0z m1525 -229 c0 -23 -136 -115 -260 -176 -41 -20 -87
-50 -102 -66 -28 -31 -28 -60 -1 -60 9 0 85 32 170 70 85 39 157 70 161 70 12
0 -62 -59 -149 -119 -47 -33 -91 -66 -97 -74 -19 -22 11 -30 62 -16 68 18 238
103 284 142 49 42 51 42 77 23 18 -13 18 -14 -3 -44 -31 -43 -143 -144 -232
-210 -41 -31 -107 -80 -147 -109 -40 -30 -108 -96 -151 -146 -194 -227 -314
-339 -383 -357 -45 -12 -199 9 -249 35 -93 48 -131 167 -106 326 19 116 60
203 122 258 55 48 178 113 259 136 84 24 163 59 448 201 224 112 297 140 297
116z m230 -381 c-5 -11 -65 -67 -133 -124 -67 -58 -133 -117 -146 -131 -23
-24 -23 -26 -5 -26 31 0 173 73 229 117 28 21 57 43 65 48 27 15 -64 -76 -133
-132 -90 -74 -112 -114 -54 -99 39 9 166 97 260 179 138 121 145 102 21 -63
-195 -261 -263 -380 -379 -665 -91 -223 -81 -212 -229 -252 l-96 -25 -43 25
c-111 65 -171 160 -170 272 0 82 24 145 94 243 24 34 62 87 84 118 64 92 359
353 544 482 79 56 109 66 91 33z m190 -366 c-71 -114 -135 -230 -145 -265 -7
-25 -7 -25 25 5 18 17 67 73 110 125 88 107 167 187 176 178 3 -4 -21 -42 -54
-85 -94 -121 -182 -313 -144 -313 5 0 51 51 100 113 93 116 198 225 207 216 3
-3 -26 -71 -64 -150 -93 -194 -115 -259 -151 -451 -17 -90 -38 -177 -47 -195
-30 -65 -146 -85 -253 -44 -89 34 -98 45 -116 139 -14 76 -14 87 1 140 40 137
180 428 248 515 74 95 161 190 165 179 2 -6 -24 -54 -58 -107z m480 -134 c0
-12 -26 -32 -33 -25 -9 10 4 34 19 34 8 0 14 -4 14 -9z"/>
<path d="M2600 5256 c0 -49 35 -154 68 -207 69 -108 198 -220 238 -205 27 10
14 39 -48 105 -35 36 -89 107 -121 156 -103 158 -122 185 -129 185 -5 0 -8
-15 -8 -34z"/>
<path d="M3890 3581 c-5 -11 -10 -37 -10 -58 0 -30 7 -46 30 -68 25 -24 32
-26 45 -15 23 19 45 65 45 94 0 51 -88 88 -110 47z"/>
<path d="M3775 2903 c-49 -12 -82 -67 -63 -107 12 -29 58 -51 86 -42 19 6 62
81 62 108 0 28 -46 50 -85 41z"/>
<path d="M3992 2202 c-13 -2 -26 -10 -29 -18 -8 -22 6 -80 25 -105 16 -19 21
-20 40 -8 66 41 38 144 -36 131z"/>
<path d="M4384 1635 c-33 -33 -28 -59 13 -63 23 -2 35 3 47 20 20 28 20 33 0
52 -21 22 -31 20 -60 -9z"/>
<path d="M4833 1263 c-16 -6 -17 -35 -1 -51 14 -14 84 -16 92 -3 7 11 -50 61
-67 60 -7 0 -18 -3 -24 -6z"/>
<path d="M4714 294 c-21 -15 -66 -50 -98 -78 -43 -37 -55 -52 -43 -54 44 -9
197 100 197 139 0 25 -10 24 -56 -7z"/>
<path d="M1500 3999 c0 -38 177 -205 197 -185 14 14 -161 206 -188 206 -5 0
-9 -9 -9 -21z"/>
<path d="M2352 4617 c-33 -39 -21 -270 17 -346 25 -47 140 -155 215 -200 96
-58 89 -19 -20 101 -86 95 -130 175 -145 268 -24 140 -31 169 -43 179 -10 8
-16 8 -24 -2z"/>
<path d="M2464 4475 c-14 -35 95 -190 118 -167 8 8 4 27 -12 68 -37 90 -90
141 -106 99z"/>
<path d="M2024 3862 c-57 -38 -37 -199 41 -322 66 -105 241 -240 311 -240 48
0 40 21 -25 65 -51 35 -226 217 -248 258 -8 16 -18 73 -22 126 -4 54 -11 103
-15 109 -8 14 -26 15 -42 4z"/>
<path d="M2210 3655 c0 -10 32 -69 54 -98 24 -32 72 -61 86 -52 21 13 8 35
-47 85 -58 51 -93 76 -93 65z"/>
<path d="M2180 2743 c0 -26 10 -54 28 -84 38 -59 136 -147 190 -170 87 -38
332 -75 332 -50 0 8 -19 17 -213 101 -53 23 -100 46 -103 51 -3 5 -29 24 -57
43 -29 18 -80 59 -114 91 l-63 57 0 -39z"/>
<path d="M2380 2732 c0 -6 29 -31 65 -57 36 -25 65 -50 65 -56 0 -14 44 -11
65 5 26 19 12 35 -67 74 -69 35 -128 51 -128 34z"/>
<path d="M2535 1639 c-9 -14 71 -89 95 -89 31 0 25 38 -11 71 -31 29 -72 38
-84 18z"/>
<path d="M2450 1568 c0 -40 41 -103 84 -132 40 -25 89 -31 105 -12 17 20 9 31
-56 73 -30 19 -73 51 -94 70 l-39 35 0 -34z"/>
<path d="M2885 1108 c-8 -42 9 -147 30 -187 25 -50 110 -111 153 -111 45 1
165 41 163 55 0 6 -50 12 -115 15 -95 5 -118 9 -136 25 -36 33 -52 75 -59 154
-6 80 -25 106 -36 49z"/>
<path d="M3030 1022 c0 -17 9 -37 24 -51 l23 -22 5 23 c7 39 -6 73 -30 76 -18
3 -22 -1 -22 -26z"/>
<path d="M3530 573 c0 -15 42 -51 73 -62 76 -29 106 4 35 37 -52 24 -108 37
-108 25z"/>
<path d="M3460 525 c0 -22 34 -87 65 -123 56 -67 235 -60 235 9 0 24 -30 39
-78 39 -52 0 -96 16 -157 57 -56 37 -65 40 -65 18z"/>
<path d="M4130 475 c-7 -8 -10 -21 -7 -28 11 -28 137 -43 137 -16 0 14 -73 59
-96 59 -12 0 -27 -7 -34 -15z"/>
<path d="M4076 352 c-10 -16 35 -73 69 -88 66 -27 155 -9 142 29 -2 6 -46 24
-98 39 -107 31 -106 31 -113 20z"/>
</g>
</svg>
